<?xml version="1.0" encoding="utf-8"?>
<!-- Generator: Adobe Illustrator 17.0.0, SVG Export Plug-In . SVG Version: 6.00 Build 0)  -->
<!DOCTYPE svg PUBLIC "-//W3C//DTD SVG 1.1//EN" "http://www.w3.org/Graphics/SVG/1.1/DTD/svg11.dtd">
<svg version="1.1" id="圖層_1" xmlns="http://www.w3.org/2000/svg" xmlns:xlink="http://www.w3.org/1999/xlink" x="0px" y="0px"
	 width="1470.157px" height="1293.16px" viewBox="0 0 1470.157 1293.16" enable-background="new 0 0 1470.157 1293.16"
	 xml:space="preserve">
<g>
	<defs>
		<rect id="SVGID_114_" x="0" y="0" width="1470.157" height="1293.16"/>
	</defs>
	<clipPath id="SVGID_2_">
		<use xlink:href="#SVGID_114_"  overflow="visible"/>
	</clipPath>
	<g clip-path="url(#SVGID_2_)">
		<g opacity="0.9">
			<text transform="matrix(1 0 0 1 212.4249 1042.8362)"><tspan x="0" y="0" fill="#FFFFFF" font-family="'DFHeiStd-W3-B5pc-H'" font-size="35">一般生：新台幣 6600 元整(三人以上糾團報名費用：6300/人)</tspan><tspan x="0" y="42" fill="#FFFFFF" font-family="'DFHeiStd-W3-B5pc-H'" font-size="35">清寒生：費用全免(需繳交 1000 元保證金，錢將會於營隊結束後退還)</tspan><tspan x="0" y="84" fill="#FFFFFF" font-family="'DFHeiStd-W3-B5pc-H'" font-size="35">報名截止日期：2016 年 5 月 7 日(禮拜六)</tspan></text>
		</g>
		<g>
			
				<text transform="matrix(1 0 0 1 560.1156 175.882)" fill="#FFFFFF" font-family="'FZLTZHB--B51-0'" font-size="73" letter-spacing="16">營隊資訊</text>
		</g>
		<g opacity="0.95">
			
				<text transform="matrix(1 0 0 1 160.6541 265.9186)" fill="#FFFFFF" font-family="'FZLTZHB--B51-0'" font-size="45" letter-spacing="3">活動&amp;地點</text>
		</g>
		<g opacity="0.9">
			<text transform="matrix(1 0 0 1 213.5461 360.2189)"><tspan x="0" y="0" fill="#FFFFFF" font-family="'DFHeiStd-W3-B5pc-H'" font-size="35">活動日期：2016 年 7 月 15 日至 7 月 20 日，共計六天五夜‧</tspan><tspan x="0" y="42" fill="#FFFFFF" font-family="'DFHeiStd-W3-B5pc-H'" font-size="35">活動地點：電機系館(電一、電二、博理館、明達館)及台大校總區</tspan><tspan x="0" y="84" fill="#FFFFFF" font-family="'DFHeiStd-W3-B5pc-H'" font-size="35">住宿地點：大一女宿舍、男一宿舍</tspan><tspan x="0" y="126" fill="#FFFFFF" font-family="'DFHeiStd-W3-B5pc-H'" font-size="35">《本營隊為統一住宿管理，小隊員不得單獨外宿》</tspan></text>
		</g>
		<g opacity="0.95">
			
				<text transform="matrix(1 0 0 1 161.7468 609.3688)" fill="#FFFFFF" font-family="'FZLTZHB--B51-0'" font-size="45" letter-spacing="3">招收對象</text>
		</g>
		<g opacity="0.9">
			<rect x="212.427" y="673.904" fill="none" width="1084.227" height="246.634"/>
			<text transform="matrix(1 0 0 1 212.4264 704.0041)"><tspan x="0" y="0" fill="#FFFFFF" font-family="'DFHeiStd-W3-B5pc-H'" font-size="35">對電機相關領域有興趣或是想了解電機系在做什麼的高中生，皆歡迎</tspan><tspan x="0" y="42" fill="#FFFFFF" font-family="'DFHeiStd-W3-B5pc-H'" font-size="35">報名電機營‧本次電機營預計招收男女小隊員各 72 名，共計 144 名</tspan><tspan x="0" y="84" fill="#FFFFFF" font-family="'DFHeiStd-W3-B5pc-H'" font-size="35">，其中會保留 10 個名額給清寒家庭學生，希望讓所有想來電機營的人</tspan><tspan x="0" y="126" fill="#FFFFFF" font-family="'DFHeiStd-W3-B5pc-H'" font-size="35">都有機會參加‧</tspan></text>
		</g>
		<g opacity="0.95">
			
				<text transform="matrix(1 0 0 1 161.7469 943.3825)" fill="#FFFFFF" font-family="'FZLTZHB--B51-0'" font-size="45" letter-spacing="3">報名費用</text>
		</g>
		<g>
			<circle fill="#FFFFFF" cx="735.154" cy="1288.711" r="56.18"/>
			<path fill="none" stroke="#FFFFFF" stroke-width="3.3332" stroke-miterlimit="10" d="M821.879,1322.741
				c-3.791,11.467-47.283,7.4-97.141-9.084c-49.859-16.484-87.204-39.143-83.413-50.61"/>
			<g>
				<path fill="#FFFFFF" d="M821.879,1322.741c0,0-0.063,0.188-0.185,0.553c-0.075,0.177-0.106,0.421-0.258,0.666
					c-0.153,0.254-0.331,0.547-0.532,0.88c-0.904,1.256-2.799,2.689-5.494,3.678c-2.681,1.025-6.085,1.801-10.006,2.215
					c-3.921,0.429-8.36,0.589-13.179,0.445c-9.641-0.274-20.796-1.658-32.546-4.003c-5.876-1.17-11.905-2.576-17.974-4.204
					c-6.076-1.607-12.184-3.461-18.248-5.44l-4.507-1.536c-1.509-0.534-3.016-1.068-4.521-1.6c-2.995-1.073-5.944-2.22-8.869-3.368
					c-5.847-2.302-11.521-4.777-16.94-7.333c-10.833-5.119-20.615-10.657-28.52-16.186c-3.954-2.759-7.424-5.532-10.315-8.217
					c-2.901-2.672-5.172-5.324-6.713-7.746c-1.574-2.401-2.241-4.684-2.217-6.23c0.036-0.382,0.068-0.72,0.096-1.011
					c0.023-0.287,0.146-0.515,0.192-0.702c0.12-0.366,0.181-0.555,0.181-0.555s-0.021,0.198-0.06,0.58
					c-0.005,0.191-0.076,0.418-0.038,0.697c0.028,0.273,0.06,0.59,0.096,0.948c0.098,0.343,0.208,0.727,0.329,1.149
					c0.181,0.403,0.38,0.839,0.612,1.293c0.543,0.886,1.206,1.867,2.11,2.86c1.78,2.002,4.318,4.1,7.381,6.294
					c3.09,2.169,6.762,4.371,10.849,6.627c8.186,4.5,18.112,9.11,28.944,13.58c5.417,2.236,11.07,4.414,16.842,6.559
					c2.887,1.068,5.819,2.09,8.751,3.138c1.466,0.506,2.935,1.014,4.406,1.522l4.472,1.491c5.935,1.985,11.915,3.827,17.819,5.575
					c5.91,1.726,11.751,3.337,17.432,4.777c11.361,2.87,22.08,5.085,31.336,6.35c4.627,0.623,8.888,1.046,12.662,1.143
					c3.768,0.063,7.056-0.109,9.679-0.658c1.318-0.26,2.435-0.652,3.399-1.041c0.458-0.227,0.877-0.459,1.262-0.675
					c0.348-0.267,0.665-0.509,0.948-0.726c0.24-0.262,0.453-0.494,0.636-0.693c0.197-0.2,0.281-0.438,0.391-0.594
					C821.778,1322.911,821.879,1322.741,821.879,1322.741z"/>
			</g>
			<path fill="none" stroke="#FFFFFF" stroke-width="3.3332" stroke-miterlimit="10" d="M641.325,1263.047
				c3.791-11.467,47.283-7.4,97.142,9.084c49.859,16.484,87.204,39.143,83.412,50.61"/>
			<circle fill="#FFFFFF" cx="808.036" cy="1279.98" r="2.404"/>
			<circle fill="#FFFFFF" cx="796.173" cy="1257.964" r="1.337"/>
			<circle fill="#FFFFFF" cx="682.834" cy="1230.127" r="2.404"/>
			<circle fill="#FFFFFF" cx="666.258" cy="1244.521" r="2.404"/>
			<circle fill="#FFFFFF" cx="724.905" cy="1225.319" r="2.404"/>
			<circle fill="#FFFFFF" cx="706.115" cy="1231.392" r="1.265"/>
			<circle fill="#FFFFFF" cx="664.417" cy="1264.312" r="1.265"/>
			<circle fill="#FFFFFF" cx="720.824" cy="1210.073" r="1.265"/>
		</g>
		<g>
			<circle fill="#DCDDDD" cx="734.982" cy="-6.414" r="65.803"/>
			<path fill="#DCDDDD" d="M836.564,33.446c-4.441,13.432-55.383,8.668-113.782-10.64S620.639-23.042,625.08-36.474"/>
			<path fill="#DCDDDD" d="M836.564,33.446c-4.441,13.432-55.383,8.668-113.782-10.64S620.639-23.042,625.08-36.474"/>
			<path fill="#DCDDDD" d="M625.08-36.474c4.441-13.432,55.383-8.668,113.782,10.64c58.4,19.308,102.142,45.848,97.702,59.279"/>
			<circle fill="#DCDDDD" cx="804.194" cy="21.042" r="2.816"/>
			<circle fill="#DCDDDD" cx="833.687" cy="1.072" r="2.038"/>
			<circle fill="#DCDDDD" cx="844.729" cy="16.448" r="2.816"/>
			<circle fill="#DCDDDD" cx="694.448" cy="63.503" r="2.816"/>
		</g>
		<rect x="0" y="0" fill="none" width="1470.157" height="1282.677"/>
		<rect x="0" y="0" fill="none" width="1470.157" height="1293.16"/>
	</g>
</g>
</svg>
